<?xml version="1.0" standalone="no"?>
<!DOCTYPE svg PUBLIC "-//W3C//DTD SVG 20010904//EN"
 "http://www.w3.org/TR/2001/REC-SVG-20010904/DTD/svg10.dtd">
<svg version="1.0" xmlns="http://www.w3.org/2000/svg"
 width="700.000000pt" height="700.000000pt" viewBox="0 0 700.000000 700.000000"
 preserveAspectRatio="xMidYMid meet">
<metadata>
Created by potrace 1.14, written by Peter Selinger 2001-2017
</metadata>
<g transform="translate(0.000000,700.000000) scale(0.100000,-0.100000)"
fill="#000000" stroke="none">
<path d="M1341 6112 c-213 -43 -401 -227 -452 -442 -20 -84 -21 -4212 -1
-4320 40 -219 220 -407 442 -461 82 -20 4210 -21 4320 -1 170 31 323 145 412
308 9 17 27 65 39 105 l23 74 0 2125 0 2125 -23 75 c-55 183 -192 330 -364
390 -30 11 -70 22 -88 26 -19 4 -981 8 -2138 8 -1706 1 -2116 -1 -2170 -12z
m701 -1833 c0 -1200 1 -1266 18 -1312 33 -86 109 -162 185 -182 17 -5 33 -9
38 -10 4 -2 33 -3 65 -4 l59 -1 -1 -649 c-1 -357 -4 -652 -8 -656 -7 -7 -928
-8 -935 -1 -4 3 -6 3815 -3 4048 0 17 6 28 17 30 9 2 140 2 291 2 l274 -2 0
-1263z m1749 21 c0 -685 3 -1262 5 -1284 10 -80 71 -165 152 -209 51 -28 84
-35 162 -36 l46 -1 0 -655 0 -655 -116 0 c-129 -1 -1054 -1 -1141 0 l-55 0 0
655 0 655 41 1 c85 1 115 8 165 35 83 45 146 132 154 212 3 20 5 596 5 1279
l1 1242 43 3 c23 2 153 3 290 3 l247 0 1 -1245z m1746 1236 c5 -5 5 -4067 0
-4072 -3 -4 -660 -6 -898 -4 l-46 0 1 654 0 654 76 4 c121 8 204 61 262 171
l23 42 2 1275 1 1275 49 5 c55 6 524 3 530 -4z"/>
</g>
</svg>
